<?xml version="1.0"?>
<!-- Converted with SVG Converter - Version 0.9.5 (Compiled Mon May 30 09:08:51 2011) - Copyright (C) 2011 Nokia -->
<svg xmlns="http://www.w3.org/2000/svg" width="96px" x="0px" version="1.1" y="0px" height="96px" viewBox="0 0 96 96" xmlns:xlink="http://www.w3.org/1999/xlink" baseProfile="tiny" xml:space="preserve">
 <rect width="96" fill="none" height="96" id="BOUNDING_BOX_1_"/>
 <path stroke-opacity="0.4" fill-opacity="0.4" id="SHADOW_1_" d="M88.023,49c0,29.633-10.364,40-40,40c-29.635,0-40-10.367-40-40c0-29.634,10.366-40,40-40&#xd;&#xa;&#x9;C77.659,9,88.023,19.365,88.023,49z"/>
 <linearGradient id="VIOLET_1_3_" y1="9.7622" x1="47.9995" y2="89.7412" gradientUnits="userSpaceOnUse" x2="47.9995">
  <stop offset="0" style="stop-color:#8C00B9"/>
  <stop offset="0.9879" style="stop-color:#82008B"/>
 </linearGradient>
 <path fill="url(#VIOLET_1_3_)" id="VIOLET_1_2_" d="M8,47.989c0,29.633,10.365,40,40,40c29.637,0,40-10.367,40-40&#xd;&#xa;&#x9;c0-28.985-9.926-39.53-38.091-39.979h-3.817C17.928,8.459,8,19.004,8,47.989z"/>
 <linearGradient id="HIGHLIGHT_VIO1_2_" y1="8.2554" x1="47.9995" y2="87.5043" gradientUnits="userSpaceOnUse" x2="47.9995">
  <stop offset="0.0364" style="stop-color:#B600E7"/>
  <stop offset="1" style="stop-color:#4A1F8C"/>
 </linearGradient>
 <path stroke-opacity="0.25" fill="url(#HIGHLIGHT_VIO1_2_)" fill-opacity="0.25" id="HIGHLIGHT_VIO1_1_" d="M48,8C18.365,8,8,18.365,8,48&#xd;&#xa;&#x9;c0,29.632,10.365,40,40,40c29.637,0,40-10.367,40-40C88,18.365,77.637,8,48,8z M48,87.023C18.842,87.023,9,77.176,9,48&#xd;&#xa;&#x9;C9,18.824,18.842,8.977,48,8.977S87,18.824,87,48C87,77.176,77.158,87.023,48,87.023z"/>
 <radialGradient cx="48.7715" cy="37.7754" id="SVGID_1_" r="11.5029" gradientUnits="userSpaceOnUse">
  <stop offset="0" style="stop-color:#47FF2E"/>
  <stop offset="1" style="stop-color:#187300"/>
 </radialGradient>
 <circle fill="url(#SVGID_1_)" cx="48.771" cy="31.518" r="6.768"/>
 <radialGradient cx="48.6436" cy="31.5181" id="SVGID_2_" r="6.6355" gradientUnits="userSpaceOnUse">
  <stop offset="0" style="stop-color:#000000;stop-opacity:0"/>
  <stop offset="0.7636" style="stop-color:#000000;stop-opacity:0"/>
  <stop offset="0.8667" style="stop-color:#000000;stop-opacity:0.09"/>
  <stop offset="1" style="stop-color:#000000;stop-opacity:0.38"/>
 </radialGradient>
 <circle fill="url(#SVGID_2_)" cx="48.771" cy="31.518" r="6.768"/>
 <radialGradient cx="48.7715" cy="24.8657" gradientTransform="matrix(0.0249 0.9997 -1.1256 0.0281 75.5435 -24.5884)" id="SVGID_3_" r="4.7863" gradientUnits="userSpaceOnUse">
  <stop offset="0" style="stop-color:#FFFFFF;stop-opacity:0.87"/>
  <stop offset="0.4727" style="stop-color:#FFFFFF;stop-opacity:0.28"/>
  <stop offset="0.9394" style="stop-color:#FFFFFF;stop-opacity:0"/>
 </radialGradient>
 <circle fill="url(#SVGID_3_)" cx="48.771" cy="31.519" r="6.768"/>
 <radialGradient cx="65.6523" cy="37.7754" id="SVGID_4_" r="11.5029" gradientUnits="userSpaceOnUse">
  <stop offset="0" style="stop-color:#47FF2E"/>
  <stop offset="1" style="stop-color:#187300"/>
 </radialGradient>
 <circle fill="url(#SVGID_4_)" cx="65.652" cy="31.518" r="6.768"/>
 <radialGradient cx="65.5244" cy="31.5181" id="SVGID_5_" r="6.6355" gradientUnits="userSpaceOnUse">
  <stop offset="0" style="stop-color:#000000;stop-opacity:0"/>
  <stop offset="0.7636" style="stop-color:#000000;stop-opacity:0"/>
  <stop offset="0.8667" style="stop-color:#000000;stop-opacity:0.09"/>
  <stop offset="1" style="stop-color:#000000;stop-opacity:0.38"/>
 </radialGradient>
 <circle fill="url(#SVGID_5_)" cx="65.652" cy="31.518" r="6.768"/>
 <radialGradient cx="65.6523" cy="24.8657" gradientTransform="matrix(0.0249 0.9997 -1.1256 0.0281 92.0036 -41.464)" id="SVGID_6_" r="4.7863" gradientUnits="userSpaceOnUse">
  <stop offset="0" style="stop-color:#FFFFFF;stop-opacity:0.87"/>
  <stop offset="0.4727" style="stop-color:#FFFFFF;stop-opacity:0.28"/>
  <stop offset="0.9394" style="stop-color:#FFFFFF;stop-opacity:0"/>
 </radialGradient>
 <circle fill="url(#SVGID_6_)" cx="65.652" cy="31.519" r="6.768"/>
 <radialGradient cx="65.6514" cy="21.6436" id="SVGID_7_" r="11.5002" gradientUnits="userSpaceOnUse">
  <stop offset="0" style="stop-color:#47FF2E"/>
  <stop offset="1" style="stop-color:#187300"/>
 </radialGradient>
 <path fill="url(#SVGID_7_)" d="M58.884,15.364c0,3.738,3.029,6.768,6.768,6.768s6.768-3.03,6.768-6.768&#xd;&#xa;&#x9;c0-1.359-0.404-2.621-1.093-3.681c-2.483-1.082-5.273-1.914-8.409-2.507C60.543,10.227,58.884,12.6,58.884,15.364z"/>
 <radialGradient cx="65.5234" cy="15.6543" id="SVGID_8_" r="6.4975" gradientUnits="userSpaceOnUse">
  <stop offset="0" style="stop-color:#000000;stop-opacity:0"/>
  <stop offset="0.7636" style="stop-color:#000000;stop-opacity:0"/>
  <stop offset="0.8667" style="stop-color:#000000;stop-opacity:0.09"/>
  <stop offset="1" style="stop-color:#000000;stop-opacity:0.38"/>
 </radialGradient>
 <path fill="url(#SVGID_8_)" d="M58.884,15.364c0,3.738,3.029,6.768,6.768,6.768s6.768-3.03,6.768-6.768&#xd;&#xa;&#x9;c0-1.359-0.404-2.621-1.093-3.681c-2.483-1.082-5.273-1.914-8.409-2.507C60.543,10.227,58.884,12.6,58.884,15.364z"/>
 <radialGradient cx="65.6514" cy="9.2866" gradientTransform="matrix(0.0249 0.9997 -1.1256 0.0281 74.4676 -56.605)" id="SVGID_9_" r="4.6237" gradientUnits="userSpaceOnUse">
  <stop offset="0" style="stop-color:#FFFFFF;stop-opacity:0.87"/>
  <stop offset="0.4727" style="stop-color:#FFFFFF;stop-opacity:0.28"/>
  <stop offset="0.9394" style="stop-color:#FFFFFF;stop-opacity:0"/>
 </radialGradient>
 <path fill="url(#SVGID_9_)" d="M58.884,15.365c0,3.737,3.029,6.768,6.768,6.768s6.768-3.031,6.768-6.768&#xd;&#xa;&#x9;c0-1.359-0.404-2.622-1.093-3.682c-2.483-1.082-5.273-1.914-8.409-2.507C60.543,10.227,58.884,12.6,58.884,15.365z"/>
 <radialGradient cx="65.6514" cy="53.9873" id="SVGID_10_" r="11.5046" gradientUnits="userSpaceOnUse">
  <stop offset="0" style="stop-color:#47FF2E"/>
  <stop offset="1" style="stop-color:#187300"/>
 </radialGradient>
 <circle fill="url(#SVGID_10_)" cx="65.651" cy="47.729" r="6.769"/>
 <radialGradient cx="65.5234" cy="47.7295" id="SVGID_11_" r="6.6362" gradientUnits="userSpaceOnUse">
  <stop offset="0" style="stop-color:#000000;stop-opacity:0"/>
  <stop offset="0.7636" style="stop-color:#000000;stop-opacity:0"/>
  <stop offset="0.8667" style="stop-color:#000000;stop-opacity:0.09"/>
  <stop offset="1" style="stop-color:#000000;stop-opacity:0.38"/>
 </radialGradient>
 <circle fill="url(#SVGID_11_)" cx="65.651" cy="47.729" r="6.769"/>
 <radialGradient cx="65.6514" cy="41.0767" gradientTransform="matrix(0.0249 0.9997 -1.1256 0.0281 110.2489 -25.707)" id="SVGID_12_" r="4.7868" gradientUnits="userSpaceOnUse">
  <stop offset="0" style="stop-color:#FFFFFF;stop-opacity:0.87"/>
  <stop offset="0.4727" style="stop-color:#FFFFFF;stop-opacity:0.28"/>
  <stop offset="0.9394" style="stop-color:#FFFFFF;stop-opacity:0"/>
 </radialGradient>
 <circle fill="url(#SVGID_12_)" cx="65.651" cy="47.73" r="6.769"/>
 <radialGradient cx="65.6514" cy="70.5068" id="SVGID_13_" r="11.5046" gradientUnits="userSpaceOnUse">
  <stop offset="0" style="stop-color:#47FF2E"/>
  <stop offset="1" style="stop-color:#187300"/>
 </radialGradient>
 <circle fill="url(#SVGID_13_)" cx="65.651" cy="64.25" r="6.769"/>
 <radialGradient cx="65.5234" cy="64.25" id="SVGID_14_" r="6.6358" gradientUnits="userSpaceOnUse">
  <stop offset="0" style="stop-color:#000000;stop-opacity:0"/>
  <stop offset="0.7636" style="stop-color:#000000;stop-opacity:0"/>
  <stop offset="0.8667" style="stop-color:#000000;stop-opacity:0.09"/>
  <stop offset="1" style="stop-color:#000000;stop-opacity:0.38"/>
 </radialGradient>
 <circle fill="url(#SVGID_14_)" cx="65.651" cy="64.25" r="6.769"/>
 <radialGradient cx="65.6514" cy="57.5977" gradientTransform="matrix(0.0249 0.9997 -1.1256 0.0281 128.8442 -9.6497)" id="SVGID_15_" r="4.7863" gradientUnits="userSpaceOnUse">
  <stop offset="0" style="stop-color:#FFFFFF;stop-opacity:0.87"/>
  <stop offset="0.4727" style="stop-color:#FFFFFF;stop-opacity:0.28"/>
  <stop offset="0.9394" style="stop-color:#FFFFFF;stop-opacity:0"/>
 </radialGradient>
 <circle fill="url(#SVGID_15_)" cx="65.651" cy="64.25" r="6.769"/>
 <radialGradient cx="81.3652" cy="70.5068" id="SVGID_16_" r="10.0874" gradientUnits="userSpaceOnUse">
  <stop offset="0" style="stop-color:#47FF2E"/>
  <stop offset="1" style="stop-color:#187300"/>
 </radialGradient>
 <path fill="url(#SVGID_16_)" d="M82.204,57.48c-3.739,0-6.77,3.03-6.77,6.769s3.03,6.769,6.77,6.769c0.85,0,1.66-0.163,2.409-0.449&#xd;&#xa;&#x9;c1.258-3.104,2.135-6.683,2.682-10.77C86.055,58.381,84.236,57.48,82.204,57.48z"/>
 <radialGradient cx="81.2529" cy="64.249" id="SVGID_17_" r="6.231" gradientUnits="userSpaceOnUse">
  <stop offset="0" style="stop-color:#000000;stop-opacity:0"/>
  <stop offset="0.7636" style="stop-color:#000000;stop-opacity:0"/>
  <stop offset="0.8667" style="stop-color:#000000;stop-opacity:0.09"/>
  <stop offset="1" style="stop-color:#000000;stop-opacity:0.38"/>
 </radialGradient>
 <path fill="url(#SVGID_17_)" d="M82.204,57.48c-3.739,0-6.77,3.03-6.77,6.769s3.03,6.769,6.77,6.769c0.85,0,1.66-0.163,2.409-0.449&#xd;&#xa;&#x9;c1.258-3.104,2.135-6.683,2.682-10.77C86.055,58.381,84.236,57.48,82.204,57.48z"/>
 <radialGradient cx="81.3652" cy="57.5957" gradientTransform="matrix(0.0249 0.9997 -1.1256 0.0281 144.1642 -25.3606)" id="SVGID_18_" r="4.6727" gradientUnits="userSpaceOnUse">
  <stop offset="0" style="stop-color:#FFFFFF;stop-opacity:0.87"/>
  <stop offset="0.4727" style="stop-color:#FFFFFF;stop-opacity:0.28"/>
  <stop offset="0.9394" style="stop-color:#FFFFFF;stop-opacity:0"/>
 </radialGradient>
 <path fill="url(#SVGID_18_)" d="M82.204,57.48c-3.739,0-6.77,3.03-6.77,6.77c0,3.736,3.03,6.768,6.77,6.768&#xd;&#xa;&#x9;c0.85,0,1.66-0.163,2.409-0.449c1.258-3.104,2.135-6.683,2.682-10.77C86.055,58.381,84.236,57.48,82.204,57.48z"/>
 <radialGradient cx="48.771" cy="86.8721" id="SVGID_19_" r="11.5037" gradientUnits="userSpaceOnUse">
  <stop offset="0" style="stop-color:#47FF2E"/>
  <stop offset="1" style="stop-color:#187300"/>
 </radialGradient>
 <circle fill="url(#SVGID_19_)" cx="48.771" cy="80.615" r="6.768"/>
 <radialGradient cx="48.6431" cy="80.6152" id="SVGID_20_" r="6.6355" gradientUnits="userSpaceOnUse">
  <stop offset="0" style="stop-color:#000000;stop-opacity:0"/>
  <stop offset="0.7636" style="stop-color:#000000;stop-opacity:0"/>
  <stop offset="0.8667" style="stop-color:#000000;stop-opacity:0.09"/>
  <stop offset="1" style="stop-color:#000000;stop-opacity:0.38"/>
 </radialGradient>
 <circle fill="url(#SVGID_20_)" cx="48.771" cy="80.615" r="6.768"/>
 <radialGradient cx="48.771" cy="73.9629" gradientTransform="matrix(0.0249 0.9997 -1.1256 0.0281 130.8044 23.1314)" id="SVGID_21_" r="4.7863" gradientUnits="userSpaceOnUse">
  <stop offset="0" style="stop-color:#FFFFFF;stop-opacity:0.87"/>
  <stop offset="0.4727" style="stop-color:#FFFFFF;stop-opacity:0.28"/>
  <stop offset="0.9394" style="stop-color:#FFFFFF;stop-opacity:0"/>
 </radialGradient>
 <circle fill="url(#SVGID_21_)" cx="48.771" cy="80.615" r="6.768"/>
 <radialGradient cx="65.6514" cy="86.2988" id="SVGID_22_" r="11.5017" gradientUnits="userSpaceOnUse">
  <stop offset="0" style="stop-color:#47FF2E"/>
  <stop offset="1" style="stop-color:#187300"/>
 </radialGradient>
 <path fill="url(#SVGID_22_)" d="M65.652,73.846c-3.739,0-6.77,3.029-6.77,6.768c0,2.752,1.645,5.115,4.003,6.174&#xd;&#xa;&#x9;c3.156-0.596,5.963-1.433,8.459-2.521c0.678-1.055,1.075-2.306,1.075-3.652C72.42,76.875,69.391,73.846,65.652,73.846z"/>
 <radialGradient cx="65.5234" cy="80.3164" id="SVGID_23_" r="6.4946" gradientUnits="userSpaceOnUse">
  <stop offset="0" style="stop-color:#000000;stop-opacity:0"/>
  <stop offset="0.7636" style="stop-color:#000000;stop-opacity:0"/>
  <stop offset="0.8667" style="stop-color:#000000;stop-opacity:0.09"/>
  <stop offset="1" style="stop-color:#000000;stop-opacity:0.38"/>
 </radialGradient>
 <path fill="url(#SVGID_23_)" d="M65.652,73.846c-3.739,0-6.77,3.029-6.77,6.768c0,2.752,1.645,5.115,4.003,6.174&#xd;&#xa;&#x9;c3.156-0.596,5.963-1.433,8.459-2.521c0.678-1.055,1.075-2.306,1.075-3.652C72.42,76.875,69.391,73.846,65.652,73.846z"/>
 <radialGradient cx="65.6514" cy="73.9561" gradientTransform="matrix(0.0249 0.9997 -1.1256 0.0281 147.2564 6.2497)" id="SVGID_24_" r="4.6197" gradientUnits="userSpaceOnUse">
  <stop offset="0" style="stop-color:#FFFFFF;stop-opacity:0.87"/>
  <stop offset="0.4727" style="stop-color:#FFFFFF;stop-opacity:0.28"/>
  <stop offset="0.9394" style="stop-color:#FFFFFF;stop-opacity:0"/>
 </radialGradient>
 <path fill="url(#SVGID_24_)" d="M65.652,73.846c-3.739,0-6.77,3.029-6.77,6.769c0,2.751,1.645,5.114,4.003,6.173&#xd;&#xa;&#x9;c3.156-0.596,5.963-1.433,8.459-2.521c0.678-1.055,1.075-2.306,1.075-3.651C72.42,76.875,69.391,73.846,65.652,73.846z"/>
 <radialGradient cx="79.4746" cy="22.7935" id="SVGID_25_" r="6.8731" gradientUnits="userSpaceOnUse">
  <stop offset="0" style="stop-color:#47FF2E"/>
  <stop offset="1" style="stop-color:#187300"/>
 </radialGradient>
 <path fill="url(#SVGID_25_)" d="M82.204,23.132c0.449,0,0.887-0.046,1.312-0.129c-1.889-3.686-4.426-6.607-7.702-8.854&#xd;&#xa;&#x9;c-0.241,0.695-0.379,1.438-0.379,2.215C75.435,20.102,78.465,23.132,82.204,23.132z"/>
 <radialGradient cx="79.3984" cy="18.6406" id="SVGID_26_" r="4.1846" gradientUnits="userSpaceOnUse">
  <stop offset="0" style="stop-color:#000000;stop-opacity:0"/>
  <stop offset="0.7636" style="stop-color:#000000;stop-opacity:0"/>
  <stop offset="0.8667" style="stop-color:#000000;stop-opacity:0.09"/>
  <stop offset="1" style="stop-color:#000000;stop-opacity:0.38"/>
 </radialGradient>
 <path fill="url(#SVGID_26_)" d="M82.204,23.132c0.449,0,0.887-0.046,1.312-0.129c-1.889-3.686-4.426-6.607-7.702-8.854&#xd;&#xa;&#x9;c-0.241,0.695-0.379,1.438-0.379,2.215C75.435,20.102,78.465,23.132,82.204,23.132z"/>
 <radialGradient cx="79.4746" cy="14.2256" gradientTransform="matrix(0.0249 0.9997 -1.1256 0.0281 93.5053 -65.6235)" id="SVGID_27_" r="3.1146" gradientUnits="userSpaceOnUse">
  <stop offset="0" style="stop-color:#FFFFFF;stop-opacity:0.87"/>
  <stop offset="0.4727" style="stop-color:#FFFFFF;stop-opacity:0.28"/>
  <stop offset="0.9394" style="stop-color:#FFFFFF;stop-opacity:0"/>
 </radialGradient>
 <path fill="url(#SVGID_27_)" d="M82.204,23.132c0.449,0,0.887-0.046,1.312-0.129c-1.889-3.686-4.426-6.607-7.702-8.854&#xd;&#xa;&#x9;c-0.241,0.695-0.379,1.438-0.379,2.216C75.435,20.101,78.465,23.132,82.204,23.132z"/>
 <radialGradient cx="16.269" cy="70.5068" id="SVGID_28_" r="11.5046" gradientUnits="userSpaceOnUse">
  <stop offset="0" style="stop-color:#47FF2E"/>
  <stop offset="1" style="stop-color:#187300"/>
 </radialGradient>
 <path fill="url(#SVGID_28_)" d="M16.27,71.018c3.738,0,6.768-3.031,6.768-6.77s-3.029-6.768-6.768-6.768&#xd;&#xa;&#x9;c-3.739,0-6.77,3.029-6.77,6.768c0,0.051,0.006,0.1,0.007,0.15c0.234,1.055,0.5,2.064,0.792,3.039&#xd;&#xa;&#x9;C11.439,69.567,13.685,71.018,16.27,71.018z"/>
 <radialGradient cx="16.1411" cy="64.249" id="SVGID_29_" r="6.6362" gradientUnits="userSpaceOnUse">
  <stop offset="0" style="stop-color:#000000;stop-opacity:0"/>
  <stop offset="0.7636" style="stop-color:#000000;stop-opacity:0"/>
  <stop offset="0.8667" style="stop-color:#000000;stop-opacity:0.09"/>
  <stop offset="1" style="stop-color:#000000;stop-opacity:0.38"/>
 </radialGradient>
 <path fill="url(#SVGID_29_)" d="M16.27,71.018c3.738,0,6.768-3.031,6.768-6.77s-3.029-6.768-6.768-6.768&#xd;&#xa;&#x9;c-3.739,0-6.77,3.029-6.77,6.768c0,0.051,0.006,0.1,0.007,0.15c0.234,1.055,0.5,2.064,0.792,3.039&#xd;&#xa;&#x9;C11.439,69.567,13.685,71.018,16.27,71.018z"/>
 <radialGradient cx="16.269" cy="57.5957" gradientTransform="matrix(0.0249 0.9997 -1.1256 0.0281 80.6905 39.7154)" id="SVGID_30_" r="4.7869" gradientUnits="userSpaceOnUse">
  <stop offset="0" style="stop-color:#FFFFFF;stop-opacity:0.87"/>
  <stop offset="0.4727" style="stop-color:#FFFFFF;stop-opacity:0.28"/>
  <stop offset="0.9394" style="stop-color:#FFFFFF;stop-opacity:0"/>
 </radialGradient>
 <path fill="url(#SVGID_30_)" d="M16.27,71.018c3.738,0,6.768-3.031,6.768-6.769c0-3.739-3.029-6.769-6.768-6.769&#xd;&#xa;&#x9;c-3.739,0-6.77,3.029-6.77,6.769c0,0.05,0.006,0.099,0.007,0.149c0.234,1.055,0.5,2.064,0.792,3.039&#xd;&#xa;&#x9;C11.44,69.567,13.685,71.018,16.27,71.018z"/>
 <radialGradient cx="17.9629" cy="22.7485" id="SVGID_31_" r="8.6257" gradientUnits="userSpaceOnUse">
  <stop offset="0" style="stop-color:#47FF2E"/>
  <stop offset="1" style="stop-color:#187300"/>
 </radialGradient>
 <path fill="url(#SVGID_31_)" d="M23.038,16.364c0-1.248-0.343-2.413-0.932-3.416c-3.974,2.231-7.005,5.278-9.218,9.273&#xd;&#xa;&#x9;c0.996,0.576,2.148,0.911,3.382,0.911C20.008,23.133,23.038,20.103,23.038,16.364z"/>
 <radialGradient cx="17.8672" cy="18.0405" id="SVGID_32_" r="4.9839" gradientUnits="userSpaceOnUse">
  <stop offset="0" style="stop-color:#000000;stop-opacity:0"/>
  <stop offset="0.7636" style="stop-color:#000000;stop-opacity:0"/>
  <stop offset="0.8667" style="stop-color:#000000;stop-opacity:0.09"/>
  <stop offset="1" style="stop-color:#000000;stop-opacity:0.38"/>
 </radialGradient>
 <path fill="url(#SVGID_32_)" d="M23.038,16.364c0-1.248-0.343-2.413-0.932-3.416c-3.974,2.231-7.005,5.278-9.218,9.273&#xd;&#xa;&#x9;c0.996,0.576,2.148,0.911,3.382,0.911C20.008,23.133,23.038,20.103,23.038,16.364z"/>
 <radialGradient cx="17.9629" cy="13.0352" gradientTransform="matrix(0.0249 0.9997 -1.1256 0.0281 32.1869 -5.288)" id="SVGID_33_" r="3.5988" gradientUnits="userSpaceOnUse">
  <stop offset="0" style="stop-color:#FFFFFF;stop-opacity:0.87"/>
  <stop offset="0.4727" style="stop-color:#FFFFFF;stop-opacity:0.28"/>
  <stop offset="0.9394" style="stop-color:#FFFFFF;stop-opacity:0"/>
 </radialGradient>
 <path fill="url(#SVGID_33_)" d="M23.038,16.365c0-1.248-0.343-2.413-0.932-3.417c-3.973,2.231-7.005,5.278-9.217,9.273&#xd;&#xa;&#x9;c0.996,0.576,2.148,0.911,3.382,0.911C20.008,23.133,23.038,20.102,23.038,16.365z"/>
 <radialGradient cx="16.2705" cy="37.7754" id="SVGID_34_" r="11.5013" gradientUnits="userSpaceOnUse">
  <stop offset="0" style="stop-color:#FF1733"/>
  <stop offset="1" style="stop-color:#8B0021"/>
 </radialGradient>
 <path fill="url(#SVGID_34_)" d="M16.269,38.286c3.738,0,6.768-3.03,6.768-6.768s-3.03-6.768-6.768-6.768&#xd;&#xa;&#x9;c-2.499,0-4.676,1.357-5.848,3.372c-0.343,1.101-0.65,2.25-0.917,3.455C9.536,35.288,12.551,38.286,16.269,38.286z"/>
 <radialGradient cx="16.1426" cy="31.5181" id="SVGID_35_" r="6.635" gradientUnits="userSpaceOnUse">
  <stop offset="0" style="stop-color:#000000;stop-opacity:0"/>
  <stop offset="0.7636" style="stop-color:#000000;stop-opacity:0"/>
  <stop offset="0.8667" style="stop-color:#000000;stop-opacity:0.09"/>
  <stop offset="1" style="stop-color:#000000;stop-opacity:0.38"/>
 </radialGradient>
 <path fill="url(#SVGID_35_)" d="M16.269,38.286c3.738,0,6.768-3.03,6.768-6.768s-3.03-6.768-6.768-6.768&#xd;&#xa;&#x9;c-2.499,0-4.676,1.357-5.848,3.372c-0.343,1.101-0.65,2.25-0.917,3.455C9.536,35.288,12.551,38.286,16.269,38.286z"/>
 <radialGradient cx="16.2705" cy="24.8657" gradientTransform="matrix(0.0249 0.9997 -1.1256 0.0281 43.8526 7.9025)" id="SVGID_36_" r="4.7862" gradientUnits="userSpaceOnUse">
  <stop offset="0" style="stop-color:#FFFFFF;stop-opacity:0.87"/>
  <stop offset="0.4727" style="stop-color:#FFFFFF;stop-opacity:0.28"/>
  <stop offset="0.9394" style="stop-color:#FFFFFF;stop-opacity:0"/>
 </radialGradient>
 <path fill="url(#SVGID_36_)" d="M16.269,38.286c3.738,0,6.768-3.031,6.768-6.768c0-3.739-3.03-6.769-6.768-6.769&#xd;&#xa;&#x9;c-2.499,0-4.676,1.358-5.848,3.373c-0.343,1.101-0.65,2.25-0.917,3.455C9.536,35.287,12.551,38.286,16.269,38.286z"/>
 <radialGradient cx="16.269" cy="54.2568" id="SVGID_37_" r="11.5037" gradientUnits="userSpaceOnUse">
  <stop offset="0" style="stop-color:#FF1733"/>
  <stop offset="1" style="stop-color:#8B0021"/>
 </radialGradient>
 <circle fill="url(#SVGID_37_)" cx="16.269" cy="48" r="6.768"/>
 <radialGradient cx="16.1411" cy="48" id="SVGID_38_" r="6.6355" gradientUnits="userSpaceOnUse">
  <stop offset="0" style="stop-color:#000000;stop-opacity:0"/>
  <stop offset="0.7636" style="stop-color:#000000;stop-opacity:0"/>
  <stop offset="0.8667" style="stop-color:#000000;stop-opacity:0.09"/>
  <stop offset="1" style="stop-color:#000000;stop-opacity:0.38"/>
 </radialGradient>
 <circle fill="url(#SVGID_38_)" cx="16.269" cy="48" r="6.768"/>
 <radialGradient cx="16.269" cy="41.3477" gradientTransform="matrix(0.0249 0.9997 -1.1256 0.0281 62.4025 23.9233)" id="SVGID_39_" r="4.7863" gradientUnits="userSpaceOnUse">
  <stop offset="0" style="stop-color:#FFFFFF;stop-opacity:0.87"/>
  <stop offset="0.4727" style="stop-color:#FFFFFF;stop-opacity:0.28"/>
  <stop offset="0.9394" style="stop-color:#FFFFFF;stop-opacity:0"/>
 </radialGradient>
 <circle fill="url(#SVGID_39_)" cx="16.269" cy="48" r="6.768"/>
 <radialGradient cx="32.4854" cy="53.9873" id="SVGID_40_" r="11.5037" gradientUnits="userSpaceOnUse">
  <stop offset="0" style="stop-color:#FF1733"/>
  <stop offset="1" style="stop-color:#8B0021"/>
 </radialGradient>
 <circle fill="url(#SVGID_40_)" cx="32.485" cy="47.729" r="6.768"/>
 <radialGradient cx="32.3574" cy="47.7295" id="SVGID_41_" r="6.636" gradientUnits="userSpaceOnUse">
  <stop offset="0" style="stop-color:#000000;stop-opacity:0"/>
  <stop offset="0.7636" style="stop-color:#000000;stop-opacity:0"/>
  <stop offset="0.8667" style="stop-color:#000000;stop-opacity:0.09"/>
  <stop offset="1" style="stop-color:#000000;stop-opacity:0.38"/>
 </radialGradient>
 <circle fill="url(#SVGID_41_)" cx="32.485" cy="47.729" r="6.768"/>
 <radialGradient cx="32.4854" cy="41.0767" gradientTransform="matrix(0.0249 0.9997 -1.1256 0.0281 77.9096 7.4487)" id="SVGID_42_" r="4.7867" gradientUnits="userSpaceOnUse">
  <stop offset="0" style="stop-color:#FFFFFF;stop-opacity:0.87"/>
  <stop offset="0.4727" style="stop-color:#FFFFFF;stop-opacity:0.28"/>
  <stop offset="0.9394" style="stop-color:#FFFFFF;stop-opacity:0"/>
 </radialGradient>
 <circle fill="url(#SVGID_42_)" cx="32.485" cy="47.73" r="6.768"/>
 <radialGradient cx="48.7715" cy="54.2568" id="SVGID_43_" r="11.5046" gradientUnits="userSpaceOnUse">
  <stop offset="0" style="stop-color:#FF1733"/>
  <stop offset="1" style="stop-color:#8B0021"/>
 </radialGradient>
 <circle fill="url(#SVGID_43_)" cx="48.772" cy="48" r="6.768"/>
 <radialGradient cx="48.6436" cy="47.9995" id="SVGID_44_" r="6.636" gradientUnits="userSpaceOnUse">
  <stop offset="0" style="stop-color:#000000;stop-opacity:0"/>
  <stop offset="0.7636" style="stop-color:#000000;stop-opacity:0"/>
  <stop offset="0.8667" style="stop-color:#000000;stop-opacity:0.09"/>
  <stop offset="1" style="stop-color:#000000;stop-opacity:0.38"/>
 </radialGradient>
 <circle fill="url(#SVGID_44_)" cx="48.772" cy="48" r="6.768"/>
 <radialGradient cx="48.7715" cy="41.3472" gradientTransform="matrix(0.0249 0.9997 -1.1256 0.0281 94.0942 -8.5695)" id="SVGID_45_" r="4.7865" gradientUnits="userSpaceOnUse">
  <stop offset="0" style="stop-color:#FFFFFF;stop-opacity:0.87"/>
  <stop offset="0.4727" style="stop-color:#FFFFFF;stop-opacity:0.28"/>
  <stop offset="0.9394" style="stop-color:#FFFFFF;stop-opacity:0"/>
 </radialGradient>
 <circle fill="url(#SVGID_45_)" cx="48.772" cy="48" r="6.768"/>
 <radialGradient cx="81.3535" cy="37.7754" id="SVGID_46_" r="10.0709" gradientUnits="userSpaceOnUse">
  <stop offset="0" style="stop-color:#FF1733"/>
  <stop offset="1" style="stop-color:#8B0021"/>
 </radialGradient>
 <path fill="url(#SVGID_46_)" d="M75.435,31.518c0,3.739,3.03,6.768,6.769,6.768c2.021,0,3.831-0.891,5.07-2.295&#xd;&#xa;&#x9;c-0.562-4.118-1.467-7.712-2.757-10.826c-0.723-0.264-1.499-0.415-2.313-0.415C78.465,24.75,75.435,27.78,75.435,31.518z"/>
 <radialGradient cx="81.2422" cy="31.5181" id="SVGID_47_" r="6.2258" gradientUnits="userSpaceOnUse">
  <stop offset="0" style="stop-color:#000000;stop-opacity:0"/>
  <stop offset="0.7636" style="stop-color:#000000;stop-opacity:0"/>
  <stop offset="0.8667" style="stop-color:#000000;stop-opacity:0.09"/>
  <stop offset="1" style="stop-color:#000000;stop-opacity:0.38"/>
 </radialGradient>
 <path fill="url(#SVGID_47_)" d="M75.435,31.518c0,3.739,3.03,6.768,6.769,6.768c2.021,0,3.831-0.891,5.07-2.295&#xd;&#xa;&#x9;c-0.562-4.118-1.467-7.712-2.757-10.826c-0.723-0.264-1.499-0.415-2.313-0.415C78.465,24.75,75.435,27.78,75.435,31.518z"/>
 <radialGradient cx="81.3535" cy="24.8657" gradientTransform="matrix(0.0249 0.9997 -1.1256 0.0281 107.3134 -57.1603)" id="SVGID_48_" r="4.671" gradientUnits="userSpaceOnUse">
  <stop offset="0" style="stop-color:#FFFFFF;stop-opacity:0.87"/>
  <stop offset="0.4727" style="stop-color:#FFFFFF;stop-opacity:0.28"/>
  <stop offset="0.9394" style="stop-color:#FFFFFF;stop-opacity:0"/>
 </radialGradient>
 <path fill="url(#SVGID_48_)" d="M75.435,31.519c0,3.736,3.03,6.768,6.769,6.768c2.021,0,3.83-0.891,5.07-2.296&#xd;&#xa;&#x9;c-0.562-4.118-1.467-7.712-2.757-10.826c-0.723-0.264-1.499-0.415-2.313-0.415C78.465,24.75,75.435,27.78,75.435,31.519z"/>
 <radialGradient cx="81.7168" cy="53.9873" id="SVGID_49_" r="10.6844" gradientUnits="userSpaceOnUse">
  <stop offset="0" style="stop-color:#FF1733"/>
  <stop offset="1" style="stop-color:#8B0021"/>
 </radialGradient>
 <path fill="url(#SVGID_49_)" d="M82.203,40.962c-3.738,0-6.769,3.03-6.769,6.768c0,3.739,3.03,6.768,6.769,6.768&#xd;&#xa;&#x9;c2.428,0,4.551-1.281,5.745-3.201C87.979,50.215,88,49.115,88,47.978c0-1.325-0.028-2.597-0.07-3.845&#xd;&#xa;&#x9;C86.731,42.23,84.618,40.962,82.203,40.962z"/>
 <radialGradient cx="81.5986" cy="47.73" id="SVGID_50_" r="6.3977" gradientUnits="userSpaceOnUse">
  <stop offset="0" style="stop-color:#000000;stop-opacity:0"/>
  <stop offset="0.7636" style="stop-color:#000000;stop-opacity:0"/>
  <stop offset="0.8667" style="stop-color:#000000;stop-opacity:0.09"/>
  <stop offset="1" style="stop-color:#000000;stop-opacity:0.38"/>
 </radialGradient>
 <path fill="url(#SVGID_50_)" d="M82.203,40.962c-3.738,0-6.769,3.03-6.769,6.768c0,3.739,3.03,6.768,6.769,6.768&#xd;&#xa;&#x9;c2.428,0,4.551-1.281,5.745-3.201C87.979,50.215,88,49.115,88,47.978c0-1.325-0.028-2.597-0.07-3.845&#xd;&#xa;&#x9;C86.731,42.23,84.618,40.962,82.203,40.962z"/>
 <radialGradient cx="81.7168" cy="41.0776" gradientTransform="matrix(0.0249 0.9997 -1.1256 0.0281 125.915 -41.7665)" id="SVGID_51_" r="4.7189" gradientUnits="userSpaceOnUse">
  <stop offset="0" style="stop-color:#FFFFFF;stop-opacity:0.87"/>
  <stop offset="0.4727" style="stop-color:#FFFFFF;stop-opacity:0.28"/>
  <stop offset="0.9394" style="stop-color:#FFFFFF;stop-opacity:0"/>
 </radialGradient>
 <path fill="url(#SVGID_51_)" d="M82.203,40.962c-3.738,0-6.769,3.03-6.769,6.769c0,3.736,3.03,6.768,6.769,6.768&#xd;&#xa;&#x9;c2.428,0,4.551-1.282,5.745-3.202C87.979,50.215,88,49.115,88,47.978c0-1.325-0.028-2.597-0.07-3.845&#xd;&#xa;&#x9;C86.731,42.23,84.618,40.962,82.203,40.962z"/>
 <radialGradient cx="79.2236" cy="81.6689" id="SVGID_52_" r="6.4447" gradientUnits="userSpaceOnUse">
  <stop offset="0" style="stop-color:#FF1733"/>
  <stop offset="1" style="stop-color:#8B0021"/>
 </radialGradient>
 <path fill="url(#SVGID_52_)" d="M83.014,73.899c-0.266-0.031-0.535-0.053-0.811-0.053c-3.738,0-6.77,3.03-6.77,6.769&#xd;&#xa;&#x9;c0,0.466,0.047,0.921,0.137,1.36C78.679,79.898,81.137,77.233,83.014,73.899z"/>
 <radialGradient cx="79.1523" cy="77.9111" id="SVGID_53_" r="3.8501" gradientUnits="userSpaceOnUse">
  <stop offset="0" style="stop-color:#000000;stop-opacity:0"/>
  <stop offset="0.7636" style="stop-color:#000000;stop-opacity:0"/>
  <stop offset="0.8667" style="stop-color:#000000;stop-opacity:0.09"/>
  <stop offset="1" style="stop-color:#000000;stop-opacity:0.38"/>
 </radialGradient>
 <path fill="url(#SVGID_53_)" d="M83.014,73.899c-0.266-0.031-0.535-0.053-0.811-0.053c-3.738,0-6.77,3.03-6.77,6.769&#xd;&#xa;&#x9;c0,0.466,0.047,0.921,0.137,1.36C78.679,79.898,81.137,77.233,83.014,73.899z"/>
 <radialGradient cx="79.2236" cy="73.916" gradientTransform="matrix(0.0249 0.9997 -1.1256 0.0281 160.4453 -7.3573)" id="SVGID_54_" r="2.8362" gradientUnits="userSpaceOnUse">
  <stop offset="0" style="stop-color:#FFFFFF;stop-opacity:0.87"/>
  <stop offset="0.4727" style="stop-color:#FFFFFF;stop-opacity:0.28"/>
  <stop offset="0.9394" style="stop-color:#FFFFFF;stop-opacity:0"/>
 </radialGradient>
 <path fill="url(#SVGID_54_)" d="M83.014,73.899c-0.266-0.031-0.535-0.053-0.811-0.053c-3.738,0-6.77,3.03-6.77,6.769&#xd;&#xa;&#x9;c0,0.466,0.047,0.921,0.137,1.36C78.679,79.898,81.137,77.233,83.014,73.899z"/>
 <radialGradient cx="18.1943" cy="82.8779" id="SVGID_55_" r="8.2307" gradientUnits="userSpaceOnUse">
  <stop offset="0" style="stop-color:#FF1733"/>
  <stop offset="1" style="stop-color:#8B0021"/>
 </radialGradient>
 <path fill="url(#SVGID_55_)" d="M16.269,73.846c-1.046,0-2.034,0.244-2.918,0.668c2.245,3.742,5.256,6.614,9.16,8.719&#xd;&#xa;&#x9;c0.338-0.806,0.526-1.69,0.526-2.619C23.038,76.875,20.007,73.846,16.269,73.846z"/>
 <radialGradient cx="18.103" cy="78.5391" id="SVGID_56_" r="4.6769" gradientUnits="userSpaceOnUse">
  <stop offset="0" style="stop-color:#000000;stop-opacity:0"/>
  <stop offset="0.7636" style="stop-color:#000000;stop-opacity:0"/>
  <stop offset="0.8667" style="stop-color:#000000;stop-opacity:0.09"/>
  <stop offset="1" style="stop-color:#000000;stop-opacity:0.38"/>
 </radialGradient>
 <path fill="url(#SVGID_56_)" d="M16.269,73.846c-1.046,0-2.034,0.244-2.918,0.668c2.245,3.742,5.256,6.614,9.16,8.719&#xd;&#xa;&#x9;c0.338-0.806,0.526-1.69,0.526-2.619C23.038,76.875,20.007,73.846,16.269,73.846z"/>
 <radialGradient cx="18.1943" cy="73.9258" gradientTransform="matrix(0.0249 0.9997 -1.1256 0.0281 100.9481 53.6625)" id="SVGID_57_" r="3.341" gradientUnits="userSpaceOnUse">
  <stop offset="0" style="stop-color:#FFFFFF;stop-opacity:0.87"/>
  <stop offset="0.4727" style="stop-color:#FFFFFF;stop-opacity:0.28"/>
  <stop offset="0.9394" style="stop-color:#FFFFFF;stop-opacity:0"/>
 </radialGradient>
 <path fill="url(#SVGID_57_)" d="M16.269,73.846c-1.046,0-2.034,0.244-2.918,0.668c2.245,3.742,5.256,6.614,9.16,8.719&#xd;&#xa;&#x9;c0.338-0.806,0.526-1.69,0.526-2.619C23.038,76.875,20.007,73.846,16.269,73.846z"/>
 <radialGradient cx="32.4854" cy="37.7754" id="SVGID_58_" r="11.5037" gradientUnits="userSpaceOnUse">
  <stop offset="0.0061" style="stop-color:#008BFF"/>
  <stop offset="1" style="stop-color:#001173"/>
 </radialGradient>
 <circle fill="url(#SVGID_58_)" cx="32.485" cy="31.518" r="6.768"/>
 <radialGradient cx="32.3574" cy="31.5181" id="SVGID_59_" r="6.6358" gradientUnits="userSpaceOnUse">
  <stop offset="0" style="stop-color:#000000;stop-opacity:0"/>
  <stop offset="0.7636" style="stop-color:#000000;stop-opacity:0"/>
  <stop offset="0.8667" style="stop-color:#000000;stop-opacity:0.09"/>
  <stop offset="1" style="stop-color:#000000;stop-opacity:0.38"/>
 </radialGradient>
 <circle fill="url(#SVGID_59_)" cx="32.485" cy="31.518" r="6.768"/>
 <radialGradient cx="32.4854" cy="24.8657" gradientTransform="matrix(0.0249 0.9997 -1.1256 0.0281 59.6633 -8.3073)" id="SVGID_60_" r="4.7864" gradientUnits="userSpaceOnUse">
  <stop offset="0" style="stop-color:#FFFFFF;stop-opacity:0.87"/>
  <stop offset="0.4727" style="stop-color:#FFFFFF;stop-opacity:0.28"/>
  <stop offset="0.9394" style="stop-color:#FFFFFF;stop-opacity:0"/>
 </radialGradient>
 <circle fill="url(#SVGID_60_)" cx="32.485" cy="31.519" r="6.768"/>
 <radialGradient cx="32.4854" cy="21.6343" id="SVGID_61_" r="11.5021" gradientUnits="userSpaceOnUse">
  <stop offset="0.0061" style="stop-color:#008BFF"/>
  <stop offset="1" style="stop-color:#001173"/>
 </radialGradient>
 <path fill="url(#SVGID_61_)" d="M25.717,15.364c0,3.738,3.03,6.768,6.768,6.768s6.768-3.03,6.768-6.768&#xd;&#xa;&#x9;c0-3.014-1.97-5.564-4.692-6.44c-2.455,0.396-4.718,0.921-6.791,1.59C26.506,11.743,25.717,13.46,25.717,15.364z"/>
 <radialGradient cx="32.3574" cy="15.5283" id="SVGID_62_" r="6.5573" gradientUnits="userSpaceOnUse">
  <stop offset="0" style="stop-color:#000000;stop-opacity:0"/>
  <stop offset="0.7636" style="stop-color:#000000;stop-opacity:0"/>
  <stop offset="0.8667" style="stop-color:#000000;stop-opacity:0.09"/>
  <stop offset="1" style="stop-color:#000000;stop-opacity:0.38"/>
 </radialGradient>
 <path fill="url(#SVGID_62_)" d="M25.717,15.364c0,3.738,3.03,6.768,6.768,6.768s6.768-3.03,6.768-6.768&#xd;&#xa;&#x9;c0-3.014-1.97-5.564-4.692-6.44c-2.455,0.396-4.718,0.921-6.791,1.59C26.506,11.743,25.717,13.46,25.717,15.364z"/>
 <radialGradient cx="32.4854" cy="9.0371" gradientTransform="matrix(0.0249 0.9997 -1.1256 0.0281 41.8474 -23.6918)" id="SVGID_63_" r="4.6942" gradientUnits="userSpaceOnUse">
  <stop offset="0" style="stop-color:#FFFFFF;stop-opacity:0.87"/>
  <stop offset="0.4727" style="stop-color:#FFFFFF;stop-opacity:0.28"/>
  <stop offset="0.9394" style="stop-color:#FFFFFF;stop-opacity:0"/>
 </radialGradient>
 <path fill="url(#SVGID_63_)" d="M25.717,15.365c0,3.737,3.03,6.768,6.768,6.768s6.768-3.031,6.768-6.768&#xd;&#xa;&#x9;c0-3.014-1.97-5.564-4.692-6.441c-2.455,0.396-4.718,0.921-6.791,1.59C26.506,11.743,25.717,13.461,25.717,15.365z"/>
 <radialGradient cx="48.7715" cy="21.6216" id="SVGID_64_" r="11.5029" gradientUnits="userSpaceOnUse">
  <stop offset="0.0061" style="stop-color:#008BFF"/>
  <stop offset="1" style="stop-color:#001173"/>
 </radialGradient>
 <circle fill="url(#SVGID_64_)" cx="48.771" cy="15.364" r="6.768"/>
 <radialGradient cx="48.6436" cy="15.3643" id="SVGID_65_" r="6.6355" gradientUnits="userSpaceOnUse">
  <stop offset="0" style="stop-color:#000000;stop-opacity:0"/>
  <stop offset="0.7636" style="stop-color:#000000;stop-opacity:0"/>
  <stop offset="0.8667" style="stop-color:#000000;stop-opacity:0.09"/>
  <stop offset="1" style="stop-color:#000000;stop-opacity:0.38"/>
 </radialGradient>
 <circle fill="url(#SVGID_65_)" cx="48.771" cy="15.364" r="6.768"/>
 <radialGradient cx="48.7715" cy="8.7119" gradientTransform="matrix(0.0249 0.9997 -1.1256 0.0281 57.3616 -40.2889)" id="SVGID_66_" r="4.7863" gradientUnits="userSpaceOnUse">
  <stop offset="0" style="stop-color:#FFFFFF;stop-opacity:0.87"/>
  <stop offset="0.4727" style="stop-color:#FFFFFF;stop-opacity:0.28"/>
  <stop offset="0.9394" style="stop-color:#FFFFFF;stop-opacity:0"/>
 </radialGradient>
 <circle fill="url(#SVGID_66_)" cx="48.771" cy="15.365" r="6.768"/>
 <radialGradient cx="48.7715" cy="71.1553" id="SVGID_67_" r="11.5029" gradientUnits="userSpaceOnUse">
  <stop offset="0.0061" style="stop-color:#008BFF"/>
  <stop offset="1" style="stop-color:#001173"/>
 </radialGradient>
 <circle fill="url(#SVGID_67_)" cx="48.771" cy="64.897" r="6.768"/>
 <radialGradient cx="48.6436" cy="64.8975" id="SVGID_68_" r="6.6358" gradientUnits="userSpaceOnUse">
  <stop offset="0" style="stop-color:#000000;stop-opacity:0"/>
  <stop offset="0.7636" style="stop-color:#000000;stop-opacity:0"/>
  <stop offset="0.8667" style="stop-color:#000000;stop-opacity:0.09"/>
  <stop offset="1" style="stop-color:#000000;stop-opacity:0.38"/>
 </radialGradient>
 <circle fill="url(#SVGID_68_)" cx="48.771" cy="64.897" r="6.768"/>
 <radialGradient cx="48.7715" cy="58.2441" gradientTransform="matrix(0.0249 0.9997 -1.1256 0.0281 113.1127 7.8533)" id="SVGID_69_" r="4.7868" gradientUnits="userSpaceOnUse">
  <stop offset="0" style="stop-color:#FFFFFF;stop-opacity:0.87"/>
  <stop offset="0.4727" style="stop-color:#FFFFFF;stop-opacity:0.28"/>
  <stop offset="0.9394" style="stop-color:#FFFFFF;stop-opacity:0"/>
 </radialGradient>
 <circle fill="url(#SVGID_69_)" cx="48.771" cy="64.898" r="6.768"/>
 <radialGradient cx="32.4854" cy="70.5049" id="SVGID_70_" r="11.5039" gradientUnits="userSpaceOnUse">
  <stop offset="0.0061" style="stop-color:#008BFF"/>
  <stop offset="1" style="stop-color:#001173"/>
 </radialGradient>
 <circle fill="url(#SVGID_70_)" cx="32.485" cy="64.248" r="6.768"/>
 <radialGradient cx="32.3574" cy="64.248" id="SVGID_71_" r="6.636" gradientUnits="userSpaceOnUse">
  <stop offset="0" style="stop-color:#000000;stop-opacity:0"/>
  <stop offset="0.7636" style="stop-color:#000000;stop-opacity:0"/>
  <stop offset="0.8667" style="stop-color:#000000;stop-opacity:0.09"/>
  <stop offset="1" style="stop-color:#000000;stop-opacity:0.38"/>
 </radialGradient>
 <circle fill="url(#SVGID_71_)" cx="32.485" cy="64.248" r="6.768"/>
 <radialGradient cx="32.4854" cy="57.5957" gradientTransform="matrix(0.0249 0.9997 -1.1256 0.0281 96.5026 23.5041)" id="SVGID_72_" r="4.7865" gradientUnits="userSpaceOnUse">
  <stop offset="0" style="stop-color:#FFFFFF;stop-opacity:0.87"/>
  <stop offset="0.4727" style="stop-color:#FFFFFF;stop-opacity:0.28"/>
  <stop offset="0.9394" style="stop-color:#FFFFFF;stop-opacity:0"/>
 </radialGradient>
 <circle fill="url(#SVGID_72_)" cx="32.485" cy="64.249" r="6.768"/>
 <radialGradient cx="32.4854" cy="86.541" id="SVGID_73_" r="11.5021" gradientUnits="userSpaceOnUse">
  <stop offset="0.0061" style="stop-color:#008BFF"/>
  <stop offset="1" style="stop-color:#001173"/>
 </radialGradient>
 <path fill="url(#SVGID_73_)" d="M39.253,80.613c0-3.738-3.03-6.768-6.768-6.768s-6.768,3.029-6.768,6.768&#xd;&#xa;&#x9;c0,1.887,0.773,3.592,2.019,4.819c2.093,0.678,4.38,1.208,6.863,1.606C37.301,86.151,39.253,83.612,39.253,80.613z"/>
 <radialGradient cx="32.3574" cy="80.4424" id="SVGID_74_" r="6.5539" gradientUnits="userSpaceOnUse">
  <stop offset="0" style="stop-color:#000000;stop-opacity:0"/>
  <stop offset="0.7636" style="stop-color:#000000;stop-opacity:0"/>
  <stop offset="0.8667" style="stop-color:#000000;stop-opacity:0.09"/>
  <stop offset="1" style="stop-color:#000000;stop-opacity:0.38"/>
 </radialGradient>
 <path fill="url(#SVGID_74_)" d="M39.253,80.613c0-3.738-3.03-6.768-6.768-6.768s-6.768,3.029-6.768,6.768&#xd;&#xa;&#x9;c0,1.887,0.773,3.592,2.019,4.819c2.093,0.678,4.38,1.208,6.863,1.606C37.301,86.151,39.253,83.612,39.253,80.613z"/>
 <radialGradient cx="32.4854" cy="73.958" gradientTransform="matrix(0.0249 0.9997 -1.1256 0.0281 114.9192 39.4073)" id="SVGID_75_" r="4.6902" gradientUnits="userSpaceOnUse">
  <stop offset="0" style="stop-color:#FFFFFF;stop-opacity:0.87"/>
  <stop offset="0.4727" style="stop-color:#FFFFFF;stop-opacity:0.28"/>
  <stop offset="0.9394" style="stop-color:#FFFFFF;stop-opacity:0"/>
 </radialGradient>
 <path fill="url(#SVGID_75_)" d="M39.253,80.613c0-3.738-3.03-6.768-6.768-6.768s-6.768,3.029-6.768,6.768&#xd;&#xa;&#x9;c0,1.887,0.774,3.592,2.02,4.819c2.092,0.678,4.379,1.208,6.862,1.606C37.301,86.151,39.253,83.611,39.253,80.613z"/>
 <linearGradient id="HIGHLIGHT_RIM_2_" y1="0" x1="47.9995" y2="144.6673" gradientUnits="userSpaceOnUse" x2="47.9995">
  <stop offset="0" style="stop-color:#FFFFFF"/>
  <stop offset="1" style="stop-color:#000000"/>
 </linearGradient>
 <path fill="url(#HIGHLIGHT_RIM_2_)" fill-opacity="0.25" id="HIGHLIGHT_RIM_1_" d="M48,7.979c-29.635,0-40,10.365-40,40&#xd;&#xa;&#x9;c0,29.633,10.365,40,40,40c29.637,0,40-10.367,40-40C88,18.344,77.637,7.979,48,7.979z M48,87.002c-29.159,0-39-9.848-39-39.024&#xd;&#xa;&#x9;C9,18.803,18.841,8.956,48,8.956c29.158,0,39,9.847,39,39.022C87,77.154,77.158,87.002,48,87.002z"/>
 <path fill="#FFFFFF" display="none" fill-opacity="0.05" id="SQUIRCLE_1_" d="M48,87.979c-29.635,0-40-10.367-40-40&#xd;&#xa;&#x9;c0-29.634,10.365-40,40-40c29.637,0,40,10.365,40,40C88,77.611,77.637,87.979,48,87.979z"/>
 <path stroke-opacity="0.02" fill-opacity="0.02" d="M9.478,64.25C13.244,81.519,24.624,87.979,48,87.979c23.378,0,34.756-6.46,38.522-23.729H9.478z"/>
 <path stroke-opacity="0.02" fill-opacity="0.02" d="M10.242,67.25C14.659,82.271,26.031,87.979,48,87.979c21.971,0,33.342-5.708,37.758-20.729H10.242z"/>
 <path stroke-opacity="0.02" fill-opacity="0.02" d="M11.258,70.25C16.284,83.041,27.555,87.979,48,87.979c20.446,0,31.717-4.938,36.742-17.729H11.258z"/>
 <path stroke-opacity="0.02" fill-opacity="0.02" d="M12.636,73.25C18.211,83.815,29.241,87.979,48,87.979c18.76,0,29.79-4.163,35.365-14.729H12.636z"/>
 <path stroke-opacity="0.02" fill-opacity="0.02" d="M13.797,75.25C19.685,84.348,30.47,87.979,48,87.979c17.531,0,28.316-3.631,34.203-12.729H13.797z"/>
 <path stroke-opacity="0.02" fill-opacity="0.02" d="M15.255,77.25C21.396,84.878,31.821,87.979,48,87.979c16.18,0,26.604-3.101,32.745-10.729H15.255z"/>
 <path fill-opacity="0.02" d="M17.059,79.25c6.305,6.177,16.254,8.729,30.941,8.729c14.688,0,24.638-2.552,30.942-8.729H17.059z"/>
 <path stroke-opacity="0.01" fill="#FFFFFF" fill-opacity="0.01" d="M48,8.979c-29.635,0-40,10.365-40,40c0,2.888,0.102,5.588,0.307,8.119l0.219,0.02h78.958&#xd;&#xa;&#x9;l0.21-0.019c0.205-2.531,0.307-5.23,0.307-8.12C88,19.344,77.637,8.979,48,8.979z"/>
 <path stroke-opacity="0.01" fill="#FFFFFF" fill-opacity="0.01" d="M48,7.979c-29.635,0-40,10.365-40,40c0,1.051,0.017,2.073,0.043,3.077l0.701,0.062H87.26&#xd;&#xa;&#x9;l0.697-0.063C87.983,50.051,88,49.029,88,47.978C88,18.344,77.637,7.979,48,7.979z"/>
 <path stroke-opacity="0.01" fill="#FFFFFF" fill-opacity="0.01" d="M8.965,46.116h78.072l0.941-0.084C87.521,17.897,76.975,7.979,48,7.979&#xd;&#xa;&#x9;c-28.973,0-39.521,9.919-39.978,38.054L8.965,46.116z"/>
 <path stroke-opacity="0.01" fill="#FFFFFF" fill-opacity="0.01" d="M9.186,41.116h77.628l0.961-0.086C86.147,16.713,75.187,7.979,48,7.979&#xd;&#xa;&#x9;c-27.185,0-38.147,8.735-39.775,33.053L9.186,41.116z"/>
 <path stroke-opacity="0.01" fill="#FFFFFF" fill-opacity="0.01" d="M9.186,37.116h77.628c0.201,0,0.397-0.036,0.594-0.066C84.854,15.753,73.648,7.979,48,7.979&#xd;&#xa;&#x9;c-25.646,0-36.854,7.774-39.408,29.072C8.789,37.08,8.984,37.116,9.186,37.116z"/>
 <path stroke-opacity="0.01" fill="#FFFFFF" fill-opacity="0.01" d="M48,7.979c-24.004,0-35.363,6.805-38.814,25.138h77.628C83.363,14.783,72.006,7.979,48,7.979&#xd;&#xa;&#x9;z"/>
 <path stroke-opacity="0.01" fill="#FFFFFF" fill-opacity="0.01" d="M84.074,29.67l1.6-0.376c0.083-0.02,0.158-0.058,0.239-0.084&#xd;&#xa;&#x9;C81.605,13.805,70.22,7.979,48,7.979c-22.218,0-33.604,5.827-37.913,21.231c0.081,0.026,0.156,0.064,0.239,0.084l1.599,0.376&#xd;&#xa;&#x9;c0.226,0.053,0.456,0.08,0.688,0.08h70.773C83.618,29.75,83.849,29.723,84.074,29.67z"/>
 <path stroke-opacity="0.01" fill="#FFFFFF" fill-opacity="0.01" d="M12.613,26.75h70.773l1.6-0.376C80.091,13.093,68.794,7.979,48,7.979&#xd;&#xa;&#x9;c-20.792,0-32.09,5.115-36.986,18.395L12.613,26.75z"/>
 <path stroke-opacity="0.01" fill="#FFFFFF" fill-opacity="0.01" d="M12.613,24.75h70.773c0.305,0,0.595-0.081,0.86-0.208C78.999,12.621,67.81,7.979,48,7.979&#xd;&#xa;&#x9;c-19.808,0-30.998,4.643-36.247,16.563C12.019,24.669,12.309,24.75,12.613,24.75z"/>
 <path stroke-opacity="0.01" fill="#FFFFFF" fill-opacity="0.01" d="M83.387,22.75C77.82,12.153,66.786,7.979,48,7.979c-18.785,0-29.819,4.174-35.387,14.771&#xd;&#xa;&#x9;H83.387z"/>
</svg>
